
Synopsis in English:

This beautiful film essay explores three themes in Eustache’s work: cinema, absence, and mourning. Both inquiry and requiem, The Lost Sorrows of Jean Eustache offers a complex portrait of a mysterious and mercurial artist.

Eustache, who made his mark on French cinema with The Mother and the Whore (1973) and committed suicide eight years later, is said to have revealed more of himself on-screen than in real life. As a consequence, this 52-minute documentary by Angel Diaz takes a mosaic approach, combining clips from Eustache's work, voice-over excerpts from his writings, and recollections from noted collaborators (Jean-Pierre Leaud, Francois Lebrun, Jean-Michel Barjol). Some of Eustache's statements are surprising (the great renegade once said he wanted to return to the 19th-century origins of the cinema), but he remains a mysterious figure; whatever his sorrows were, they seem to have been lost for good.

===============
English and Portuguese-Br soft subs included
===============

=========

Screens:
  
http://bayimg.com/aAJJjAaDe



General
Complete name                            : La Peine Perdue De Jean Eustache (1997).avi
Format                                   : AVI
Format/Info                              : Audio Video Interleave
File size                                : 681 MiB
Duration                                 : 53mn 31s
Overall bit rate                         : 1 779 Kbps
Writing application                      : VirtualDubMod 1.5.10.2 (build 2540/release)
Writing library                          : VirtualDubMod build 2540/release

Video
ID                                       : 0
Format                                   : MPEG-4 Visual
Format profile                           : Advanced Simple@L5
Format settings, BVOP                    : 2
Format settings, QPel                    : No
Format settings, GMC                     : No warppoints
Format settings, Matrix                  : Default (MPEG)
Codec ID                                 : DIVX
Codec ID/Info                            : Project Mayo
Codec ID/Hint                            : DivX 4
Duration                                 : 53mn 31s
Bit rate                                 : 1 641 Kbps
Width                                    : 640 pixels
Height                                   : 480 pixels
Display aspect ratio                     : 4:3
Frame rate                               : 25.000 fps
Color space                              : YUV
Chroma subsampling                       : 4:2:0
Bit depth                                : 8 bits
Scan type                                : Progressive
Compression mode                         : Lossy
Bits/(Pixel*Frame)                       : 0.214
Stream size                              : 628 MiB (92%)
Writing library                          : XviD 1.2.1 (UTC 2008-12-04)

Audio
ID                                       : 1
Format                                   : MPEG Audio
Format version                           : Version 1
Format profile                           : Layer 3
Codec ID                                 : 55
Codec ID/Hint                            : MP3
Duration                                 : 53mn 31s
Bit rate mode                            : Constant
Bit rate                                 : 128 Kbps
Channel(s)                               : 2 channels
Sampling rate                            : 48.0 KHz
Compression mode                         : Lossy
Stream size                              : 49.0 MiB (7%)
Alignment                                : Split accross interleaves
Interleave, duration                     : 40 ms (1.00 video frame)
Interleave, preload duration             : 500 ms

